<svg width="192" height="40" viewBox="0 0 192 40" fill="none" xmlns="http://www.w3.org/2000/svg">
<path d="M64.1228 11.5591V10.1507C64.1228 8.32634 63.0025 6.822 60.0258 6.822C56.6972 6.822 52.8883 8.58237 52.8883 14.9198V27.0505C52.8883 29.7071 54.0726 30.8274 56.9532 30.8274H58.8096V19.2088H60.2179C61.7543 19.2088 62.8425 18.4406 62.8425 17.2563V15.0478H58.8096V12.9674C58.8096 11.9111 59.8018 11.079 61.2422 11.079C62.0423 11.079 63.2906 11.207 63.9628 11.5591H64.1228ZM80.4121 23.0816V20.361C80.4121 15.1759 77.2435 12.7113 72.3783 12.7113C67.3532 12.7113 65.0807 14.8878 65.0807 17.0643V19.2088H65.2408C66.4891 18.0565 67.7053 17.2883 71.0021 17.2883C73.4026 17.2883 74.5229 17.6404 74.5229 19.0808V19.8169H73.6587C67.2572 19.8169 64.4406 21.8013 64.4406 25.7062C64.4406 29.7071 68.5695 31.3075 71.9623 31.3075C78.3637 31.3075 80.4121 29.4831 80.4121 23.0816ZM74.6509 24.906C74.6509 26.5064 73.6907 27.0505 72.6024 27.0505C70.9061 27.0505 70.2019 26.4744 70.2019 25.3541C70.2019 24.1699 71.1301 23.5938 73.4346 23.5938H74.6509V24.906ZM100.384 19.7529C100.384 15.2719 96.7992 12.6793 92.1907 12.6793C86.749 12.6793 83.1323 17.0322 83.1323 22.3774C83.1323 27.2425 86.3328 31.3395 92.4145 31.3395C97.4392 31.3395 99.2639 29.3231 99.2639 27.0825V25.6742H99.04C98.0477 26.3464 96.2869 26.7945 93.4707 26.7945C90.9422 26.7945 89.5013 25.9623 89.1498 24.2019H91.7745C97.7277 24.2019 100.384 23.2737 100.384 19.7529ZM94.7507 19.0808C94.7507 19.8489 94.2383 20.297 91.3583 20.297H88.9898C89.1498 18.6007 90.046 17.2243 92.1907 17.2243C93.9507 17.2243 94.7507 18.1845 94.7507 19.0808ZM121.933 21.7693C121.933 16.0401 118.476 12.7113 113.675 12.7113C111.274 12.7113 110.186 13.8316 109.193 15.1118V10.983C109.193 8.13429 108.137 7.14207 104.776 7.14207H103.304V22.8256C103.304 28.0107 106.249 31.3075 112.266 31.3075C117.9 31.3075 121.933 27.6586 121.933 21.7693ZM115.851 22.4095C115.851 25.1301 114.571 26.6985 112.65 26.6985C110.57 26.6985 109.226 25.5462 109.226 22.0894C109.226 19.2088 110.602 17.4804 112.554 17.4804C114.666 17.4804 115.851 18.8567 115.851 22.4095ZM131.399 9.22254C131.399 7.55817 129.991 6.21387 128.23 6.21387C126.47 6.21387 125.029 7.55817 125.029 9.22254C125.029 10.8869 126.47 12.2312 128.23 12.2312C129.991 12.2312 131.399 10.8869 131.399 9.22254ZM134.599 28.2668V26.4744H133.863C132.167 26.4744 131.431 25.9943 131.431 24.4259V17.9605C131.431 14.7597 130.311 13.7676 126.854 13.7676H125.35V25.3221C125.35 29.4831 127.878 31.0834 131.111 31.0834C132.999 31.0834 134.599 30.3792 134.599 28.2668ZM139.183 7.14207H136.847V27.2425C136.847 29.3551 138.287 30.8274 140.528 30.8274H142.928V22.4415C144.592 24.97 146.129 27.4666 148.113 29.7711C148.849 30.6353 150.354 30.9874 151.25 30.9874C153.426 30.9874 154.739 29.8991 154.963 27.9467C153.619 27.6266 153.106 27.4666 151.794 25.9623C150.578 24.5539 149.522 22.8576 148.497 21.3213C150.098 19.0168 153.97 14.5037 155.059 13.3835V13.2234H150.802C148.946 13.2234 148.337 13.5755 147.569 14.4077C145.841 16.2641 144.369 18.5686 142.928 20.7131V10.6949C142.928 8.93445 141.936 7.14207 139.183 7.14207ZM172.994 19.7529C172.994 15.2719 169.409 12.6793 164.8 12.6793C159.359 12.6793 155.742 17.0322 155.742 22.3774C155.742 27.2425 158.943 31.3395 165.024 31.3395C170.049 31.3395 171.874 29.3231 171.874 27.0825V25.6742H171.649C170.658 26.3464 168.897 26.7945 166.081 26.7945C163.552 26.7945 162.112 25.9623 161.759 24.2019H164.384C170.337 24.2019 172.994 23.2737 172.994 19.7529ZM167.361 19.0808C167.361 19.8489 166.849 20.297 163.968 20.297H161.599C161.759 18.6007 162.655 17.2243 164.8 17.2243C166.561 17.2243 167.361 18.1845 167.361 19.0808ZM190.157 25.1621C190.157 22.1854 188.173 20.5851 185.228 20.1049C181.547 19.4968 181.163 19.2728 181.163 18.6007C181.163 17.8645 181.9 17.2563 184.172 17.2563C186.54 17.2563 188.397 17.8645 189.581 18.7287H189.741V16.9042C189.741 14.2796 187.373 12.7113 183.468 12.7113C179.435 12.7113 175.434 14.8558 175.434 19.0808C175.434 21.8973 177.099 23.3377 180.267 23.7858C183.916 24.2979 184.332 24.6179 184.332 25.4181C184.332 26.2824 183.628 26.7945 181.42 26.7945C178.923 26.7945 177.163 26.1223 176.01 25.2581H175.85V27.0185C175.85 29.5791 177.579 31.3395 182.38 31.3395C187.213 31.3395 190.157 28.939 190.157 25.1621Z" fill="#D13A36"/>
<path d="M20 40C31.0457 40 40 31.0457 40 20C40 8.9543 31.0457 0 20 0C8.9543 0 0 8.9543 0 20C0 31.0457 8.9543 40 20 40Z" fill="#D13A36"/>
<path d="M14.1749 21.6225H9.33262C9.10717 21.6225 8.92334 21.4396 8.92334 21.2133C8.92334 21.1114 8.96087 21.0145 9.02913 20.9394L24.9045 3.36649C25.1536 3.09066 25.5798 3.06892 25.8556 3.31805C26.0612 3.50391 26.1324 3.79754 26.0336 4.05656L21.6608 15.5622H29.3593C30.3074 15.5622 31.0765 16.3304 31.0765 17.2795C31.0765 17.7135 30.9114 18.1317 30.6158 18.45L13.5827 36.7269C13.4305 36.891 13.1735 36.8998 13.0093 36.7477C12.8877 36.6349 12.8472 36.459 12.9075 36.3047L16.1353 27.9211H17.8952C18.7315 27.9211 19.4809 27.4041 19.7775 26.622L20.5921 24.4747H17.3247L18.2045 22.2048C18.3548 21.8183 18.7266 21.5632 19.1418 21.5632H23.3751C24.3816 21.5632 25.2812 20.9374 25.6312 19.9943L26.4152 17.8796L17.4571 17.8302C16.3747 17.8242 15.4008 18.4856 15.0073 19.494L14.1749 21.6225Z" fill="white"/>
</svg>
